<?xml version="1.0" encoding="UTF-8" standalone="no"?>
<!DOCTYPE svg PUBLIC "-//W3C//DTD SVG 1.1//EN" "http://www.w3.org/Graphics/SVG/1.1/DTD/svg11.dtd">
<svg width="100%" height="100%" viewBox="0 0 165 366" version="1.1" xmlns="http://www.w3.org/2000/svg" xmlns:xlink="http://www.w3.org/1999/xlink" xml:space="preserve" xmlns:serif="http://www.serif.com/" style="fill-rule:evenodd;clip-rule:evenodd;stroke-linejoin:round;stroke-miterlimit:2;">
    <g transform="matrix(1,0,0,1,-180,-125)">
        <g>
            <g transform="matrix(1,0,0,1,-21.0676,21.0676)">
                <g transform="matrix(227.515,0,0,227.515,310.39,297.422)">
                </g>
                <text x="187.077px" y="297.422px" style="font-family:'FuturaStd-Bold', 'Futura Std';font-weight:700;font-size:227.515px;">F</text>
            </g>
            <g transform="matrix(1,0,0,1,23.8147,192.614)">
                <g transform="matrix(227.515,0,0,227.515,312.21,297.422)">
                </g>
                <text x="187.077px" y="297.422px" style="font-family:'FuturaStd-Bold', 'Futura Std';font-weight:700;font-size:227.515px;">E</text>
            </g>
            <g transform="matrix(1,0,0,1,-8.84475,8.84475)">
                <g transform="matrix(227.515,0,0,227.515,310.39,297.422)">
                </g>
                <text x="187.077px" y="297.422px" style="font-family:'FuturaStd-Bold', 'Futura Std';font-weight:700;font-size:227.515px;fill:white;">F</text>
            </g>
            <g transform="matrix(1,0,0,1,36.0375,180.391)">
                <g transform="matrix(227.515,0,0,227.515,312.21,297.422)">
                </g>
                <text x="187.077px" y="297.422px" style="font-family:'FuturaStd-Bold', 'Futura Std';font-weight:700;font-size:227.515px;fill:white;">E</text>
            </g>
            <g transform="matrix(227.515,0,0,227.515,310.39,297.422)">
            </g>
            <text x="187.077px" y="297.422px" style="font-family:'FuturaStd-Bold', 'Futura Std';font-weight:700;font-size:227.515px;fill:rgb(255,233,0);">F</text>
            <g transform="matrix(1,0,0,1,44.8822,171.546)">
                <g transform="matrix(227.515,0,0,227.515,312.21,297.422)">
                </g>
                <text x="187.077px" y="297.422px" style="font-family:'FuturaStd-Bold', 'Futura Std';font-weight:700;font-size:227.515px;fill:rgb(255,233,0);">E</text>
            </g>
        </g>
    </g>
</svg>
