<?xml version="1.0" encoding="UTF-8" standalone="no"?>
<!DOCTYPE svg PUBLIC "-//W3C//DTD SVG 1.1//EN" "http://www.w3.org/Graphics/SVG/1.1/DTD/svg11.dtd">
<svg width="100%" height="100%" viewBox="0 0 321 327" version="1.1" xmlns="http://www.w3.org/2000/svg" xmlns:xlink="http://www.w3.org/1999/xlink" xml:space="preserve" xmlns:serif="http://www.serif.com/" style="fill-rule:evenodd;clip-rule:evenodd;stroke-linejoin:round;stroke-miterlimit:2;">
    <g transform="matrix(1,0,0,1,-1327,-1771)">
        <g id="icon">
            <g transform="matrix(0.752544,0,0,0.752544,996.728,1214.06)">
                <path d="M522.642,1057.45L522.642,897.091L498.306,897.091L498.306,841.901L522.642,841.901L522.642,833.644C522.642,804.094 530.102,783.307 545.022,771.284C559.942,759.261 579.57,753.249 603.906,753.249L626.069,753.249L626.069,811.481L613.901,811.481C605.499,811.481 599.416,813.147 595.649,816.479C591.883,819.811 590,825.243 590,832.775L590,841.901L626.069,841.901L626.069,897.091L590,897.091L590,1057.45L522.642,1057.45ZM742.776,1115.28C722.786,1115.28 704.389,1111.01 687.586,1102.46C670.782,1093.92 657.311,1081.24 647.171,1064.44C637.031,1047.64 631.961,1026.92 631.961,1002.3C631.961,977.671 636.886,956.957 646.736,940.153C656.586,923.35 669.913,910.675 686.716,902.129C703.52,893.582 722.206,889.309 742.776,889.309C764.214,889.309 783.118,893.727 799.487,902.563C815.855,911.399 828.748,924.002 838.163,940.371C847.579,956.739 852.287,976.223 852.287,998.82C852.287,1001.72 852.214,1004.83 852.069,1008.16C851.925,1011.5 851.562,1014.9 850.983,1018.38L698.884,1018.38C699.753,1028.81 702.288,1037.06 706.489,1043.15C710.69,1049.23 715.905,1053.65 722.134,1056.4C728.362,1059.15 734.519,1060.53 740.603,1060.53C749.004,1060.53 756.102,1058.79 761.897,1055.31C767.691,1051.84 772.181,1046.48 775.368,1039.24L847.072,1039.24C843.885,1052.85 837.511,1065.45 827.951,1077.04C818.39,1088.63 806.44,1097.9 792.099,1104.86C777.758,1111.81 761.317,1115.28 742.776,1115.28ZM698.884,981.003L783.19,981.003C783.19,969.125 779.279,959.854 771.457,953.19C763.635,946.527 753.785,943.195 741.907,943.195C730.318,943.195 720.758,946.599 713.225,953.408C705.693,960.216 700.912,969.414 698.884,981.003Z"/>
                <path d="M517.105,1057.45C517.105,1057.45 517.105,902.628 517.105,902.628L492.769,902.628L492.769,836.364L517.105,836.364L517.105,833.644C517.105,801.972 525.557,779.859 541.548,766.973C557.36,754.231 578.116,747.713 603.906,747.713L631.606,747.713L631.606,817.018L613.901,817.018C607.231,817.018 602.308,817.981 599.318,820.626C596.539,823.084 595.537,827.218 595.537,832.775L595.537,836.364L631.606,836.364L631.606,902.628L595.537,902.628L595.537,1062.98L517.105,1062.98L517.105,1057.45ZM522.642,1057.45L590,1057.45L590,897.091L626.069,897.091L626.069,841.901L590,841.901L590,832.775C590,825.243 591.883,819.811 595.649,816.479C599.416,813.147 605.499,811.481 613.901,811.481L626.069,811.481L626.069,753.249L603.906,753.249C579.57,753.249 559.942,759.261 545.022,771.284C530.102,783.307 522.642,804.094 522.642,833.644L522.642,841.901L498.306,841.901L498.306,897.091L522.642,897.091L522.642,1057.45ZM742.776,1120.82C721.875,1120.82 702.644,1116.34 685.075,1107.4C667.35,1098.38 653.127,1085.03 642.43,1067.3C631.82,1049.72 626.424,1028.07 626.424,1002.3C626.424,976.553 631.662,954.92 641.96,937.353C652.366,919.602 666.455,906.222 684.206,897.194C701.764,888.263 721.283,883.772 742.776,883.772C765.213,883.772 784.986,888.443 802.117,897.691C819.402,907.022 833.02,920.325 842.963,937.61C852.826,954.756 857.824,975.149 857.824,998.82C857.824,1001.79 857.75,1004.99 857.601,1008.4C857.447,1011.95 857.062,1015.58 856.445,1019.29L855.673,1023.91C855.673,1023.91 705.136,1023.91 705.136,1023.91C706.22,1030.43 708.151,1035.81 711.045,1040C714.63,1045.19 719.057,1048.99 724.371,1051.34C729.848,1053.76 735.254,1054.99 740.603,1054.99C747.872,1054.99 754.035,1053.57 759.048,1050.57C763.915,1047.65 767.623,1043.09 770.3,1037.01L771.755,1033.7L854.054,1033.7L852.463,1040.5C849.086,1054.92 842.352,1068.29 832.222,1080.57C822.164,1092.76 809.601,1102.52 794.515,1109.84C779.469,1117.13 762.229,1120.82 742.776,1120.82ZM742.776,1115.28C761.317,1115.28 777.758,1111.81 792.099,1104.86C806.44,1097.9 818.39,1088.63 827.951,1077.04C837.511,1065.45 843.885,1052.85 847.072,1039.24L775.368,1039.24C772.181,1046.48 767.691,1051.84 761.897,1055.31C756.102,1058.79 749.004,1060.53 740.603,1060.53C734.519,1060.53 728.362,1059.15 722.134,1056.4C715.905,1053.65 710.69,1049.23 706.489,1043.15C702.288,1037.06 699.753,1028.81 698.884,1018.38L850.983,1018.38C851.562,1014.9 851.925,1011.5 852.069,1008.16C852.214,1004.83 852.287,1001.72 852.287,998.82C852.287,976.223 847.579,956.739 838.163,940.371C828.748,924.002 815.855,911.399 799.487,902.563C783.118,893.727 764.214,889.309 742.776,889.309C722.206,889.309 703.52,893.582 686.716,902.129C669.913,910.675 656.586,923.35 646.736,940.153C636.886,956.957 631.961,977.671 631.961,1002.3C631.961,1026.92 637.031,1047.64 647.171,1064.44C657.311,1081.24 670.782,1093.92 687.586,1102.46C704.389,1111.01 722.786,1115.28 742.776,1115.28ZM698.884,981.003C700.912,969.414 705.693,960.216 713.225,953.408C720.758,946.599 730.318,943.195 741.907,943.195C753.785,943.195 763.635,946.527 771.457,953.19C779.279,959.854 783.19,969.125 783.19,981.003L698.884,981.003ZM705.874,975.466C705.874,975.466 777.303,975.466 777.303,975.466C776.315,968.006 773.219,961.965 767.867,957.405C761.004,951.559 752.328,948.732 741.907,948.732C731.832,948.732 723.486,951.596 716.938,957.515C711.75,962.204 708.087,968.201 705.874,975.466Z" style="fill:rgb(35,31,32);"/>
            </g>
            <g transform="matrix(0.752544,0,0,0.752544,987.523,1223.26)">
                <path d="M522.642,1057.45L522.642,897.091L498.306,897.091L498.306,841.901L522.642,841.901L522.642,833.644C522.642,804.094 530.102,783.307 545.022,771.284C559.942,759.261 579.57,753.249 603.906,753.249L626.069,753.249L626.069,811.481L613.901,811.481C605.499,811.481 599.416,813.147 595.649,816.479C591.883,819.811 590,825.243 590,832.775L590,841.901L626.069,841.901L626.069,897.091L590,897.091L590,1057.45L522.642,1057.45ZM742.776,1115.28C722.786,1115.28 704.389,1111.01 687.586,1102.46C670.782,1093.92 657.311,1081.24 647.171,1064.44C637.031,1047.64 631.961,1026.92 631.961,1002.3C631.961,977.671 636.886,956.957 646.736,940.153C656.586,923.35 669.913,910.675 686.716,902.129C703.52,893.582 722.206,889.309 742.776,889.309C764.214,889.309 783.118,893.727 799.487,902.563C815.855,911.399 828.748,924.002 838.163,940.371C847.579,956.739 852.287,976.223 852.287,998.82C852.287,1001.72 852.214,1004.83 852.069,1008.16C851.925,1011.5 851.562,1014.9 850.983,1018.38L698.884,1018.38C699.753,1028.81 702.288,1037.06 706.489,1043.15C710.69,1049.23 715.905,1053.65 722.134,1056.4C728.362,1059.15 734.519,1060.53 740.603,1060.53C749.004,1060.53 756.102,1058.79 761.897,1055.31C767.691,1051.84 772.181,1046.48 775.368,1039.24L847.072,1039.24C843.885,1052.85 837.511,1065.45 827.951,1077.04C818.39,1088.63 806.44,1097.9 792.099,1104.86C777.758,1111.81 761.317,1115.28 742.776,1115.28ZM698.884,981.003L783.19,981.003C783.19,969.125 779.279,959.854 771.457,953.19C763.635,946.527 753.785,943.195 741.907,943.195C730.318,943.195 720.758,946.599 713.225,953.408C705.693,960.216 700.912,969.414 698.884,981.003Z" style="fill:rgb(255,77,223);"/>
                <path d="M517.105,1057.45C517.105,1057.45 517.105,902.628 517.105,902.628L492.769,902.628L492.769,836.364L517.105,836.364L517.105,833.644C517.105,801.972 525.557,779.859 541.548,766.973C557.36,754.231 578.116,747.713 603.906,747.713L631.606,747.713L631.606,817.018L613.901,817.018C607.231,817.018 602.308,817.981 599.318,820.626C596.539,823.084 595.537,827.218 595.537,832.775L595.537,836.364L631.606,836.364L631.606,902.628L595.537,902.628L595.537,1062.98L517.105,1062.98L517.105,1057.45ZM522.642,1057.45L590,1057.45L590,897.091L626.069,897.091L626.069,841.901L590,841.901L590,832.775C590,825.243 591.883,819.811 595.649,816.479C599.416,813.147 605.499,811.481 613.901,811.481L626.069,811.481L626.069,753.249L603.906,753.249C579.57,753.249 559.942,759.261 545.022,771.284C530.102,783.307 522.642,804.094 522.642,833.644L522.642,841.901L498.306,841.901L498.306,897.091L522.642,897.091L522.642,1057.45ZM742.776,1120.82C721.875,1120.82 702.644,1116.34 685.075,1107.4C667.35,1098.38 653.127,1085.03 642.43,1067.3C631.82,1049.72 626.424,1028.07 626.424,1002.3C626.424,976.553 631.662,954.92 641.96,937.353C652.366,919.602 666.455,906.222 684.206,897.194C701.764,888.263 721.283,883.772 742.776,883.772C765.213,883.772 784.986,888.443 802.117,897.691C819.402,907.022 833.02,920.325 842.963,937.61C852.826,954.756 857.824,975.149 857.824,998.82C857.824,1001.79 857.75,1004.99 857.601,1008.4C857.447,1011.95 857.062,1015.58 856.445,1019.29L855.673,1023.91C855.673,1023.91 705.136,1023.91 705.136,1023.91C706.22,1030.43 708.151,1035.81 711.045,1040C714.63,1045.19 719.057,1048.99 724.371,1051.34C729.848,1053.76 735.254,1054.99 740.603,1054.99C747.872,1054.99 754.035,1053.57 759.048,1050.57C763.915,1047.65 767.623,1043.09 770.3,1037.01L771.755,1033.7L854.054,1033.7L852.463,1040.5C849.086,1054.92 842.352,1068.29 832.222,1080.57C822.164,1092.76 809.601,1102.52 794.515,1109.84C779.469,1117.13 762.229,1120.82 742.776,1120.82ZM742.776,1115.28C761.317,1115.28 777.758,1111.81 792.099,1104.86C806.44,1097.9 818.39,1088.63 827.951,1077.04C837.511,1065.45 843.885,1052.85 847.072,1039.24L775.368,1039.24C772.181,1046.48 767.691,1051.84 761.897,1055.31C756.102,1058.79 749.004,1060.53 740.603,1060.53C734.519,1060.53 728.362,1059.15 722.134,1056.4C715.905,1053.65 710.69,1049.23 706.489,1043.15C702.288,1037.06 699.753,1028.81 698.884,1018.38L850.983,1018.38C851.562,1014.9 851.925,1011.5 852.069,1008.16C852.214,1004.83 852.287,1001.72 852.287,998.82C852.287,976.223 847.579,956.739 838.163,940.371C828.748,924.002 815.855,911.399 799.487,902.563C783.118,893.727 764.214,889.309 742.776,889.309C722.206,889.309 703.52,893.582 686.716,902.129C669.913,910.675 656.586,923.35 646.736,940.153C636.886,956.957 631.961,977.671 631.961,1002.3C631.961,1026.92 637.031,1047.64 647.171,1064.44C657.311,1081.24 670.782,1093.92 687.586,1102.46C704.389,1111.01 722.786,1115.28 742.776,1115.28ZM698.884,981.003C700.912,969.414 705.693,960.216 713.225,953.408C720.758,946.599 730.318,943.195 741.907,943.195C753.785,943.195 763.635,946.527 771.457,953.19C779.279,959.854 783.19,969.125 783.19,981.003L698.884,981.003ZM705.874,975.466C705.874,975.466 777.303,975.466 777.303,975.466C776.315,968.006 773.219,961.965 767.867,957.405C761.004,951.559 752.328,948.732 741.907,948.732C731.832,948.732 723.486,951.596 716.938,957.515C711.75,962.204 708.087,968.201 705.874,975.466Z" style="fill:rgb(35,31,32);"/>
            </g>
            <g transform="matrix(0.752544,0,0,0.752544,973.415,1237.37)">
                <path d="M522.642,1057.45L522.642,897.091L498.306,897.091L498.306,841.901L522.642,841.901L522.642,833.644C522.642,804.094 530.102,783.307 545.022,771.284C559.942,759.261 579.57,753.249 603.906,753.249L626.069,753.249L626.069,811.481L613.901,811.481C605.499,811.481 599.416,813.147 595.649,816.479C591.883,819.811 590,825.243 590,832.775L590,841.901L626.069,841.901L626.069,897.091L590,897.091L590,1057.45L522.642,1057.45ZM742.776,1115.28C722.786,1115.28 704.389,1111.01 687.586,1102.46C670.782,1093.92 657.311,1081.24 647.171,1064.44C637.031,1047.64 631.961,1026.92 631.961,1002.3C631.961,977.671 636.886,956.957 646.736,940.153C656.586,923.35 669.913,910.675 686.716,902.129C703.52,893.582 722.206,889.309 742.776,889.309C764.214,889.309 783.118,893.727 799.487,902.563C815.855,911.399 828.748,924.002 838.163,940.371C847.579,956.739 852.287,976.223 852.287,998.82C852.287,1001.72 852.214,1004.83 852.069,1008.16C851.925,1011.5 851.562,1014.9 850.983,1018.38L698.884,1018.38C699.753,1028.81 702.288,1037.06 706.489,1043.15C710.69,1049.23 715.905,1053.65 722.134,1056.4C728.362,1059.15 734.519,1060.53 740.603,1060.53C749.004,1060.53 756.102,1058.79 761.897,1055.31C767.691,1051.84 772.181,1046.48 775.368,1039.24L847.072,1039.24C843.885,1052.85 837.511,1065.45 827.951,1077.04C818.39,1088.63 806.44,1097.9 792.099,1104.86C777.758,1111.81 761.317,1115.28 742.776,1115.28ZM698.884,981.003L783.19,981.003C783.19,969.125 779.279,959.854 771.457,953.19C763.635,946.527 753.785,943.195 741.907,943.195C730.318,943.195 720.758,946.599 713.225,953.408C705.693,960.216 700.912,969.414 698.884,981.003Z" style="fill:rgb(160,80,254);"/>
                <path d="M517.105,1057.45C517.105,1057.45 517.105,902.628 517.105,902.628L492.769,902.628L492.769,836.364L517.105,836.364L517.105,833.644C517.105,801.972 525.557,779.859 541.548,766.973C557.36,754.231 578.116,747.713 603.906,747.713L631.606,747.713L631.606,817.018L613.901,817.018C607.231,817.018 602.308,817.981 599.318,820.626C596.539,823.084 595.537,827.218 595.537,832.775L595.537,836.364L631.606,836.364L631.606,902.628L595.537,902.628L595.537,1062.98L517.105,1062.98L517.105,1057.45ZM522.642,1057.45L590,1057.45L590,897.091L626.069,897.091L626.069,841.901L590,841.901L590,832.775C590,825.243 591.883,819.811 595.649,816.479C599.416,813.147 605.499,811.481 613.901,811.481L626.069,811.481L626.069,753.249L603.906,753.249C579.57,753.249 559.942,759.261 545.022,771.284C530.102,783.307 522.642,804.094 522.642,833.644L522.642,841.901L498.306,841.901L498.306,897.091L522.642,897.091L522.642,1057.45ZM742.776,1120.82C721.875,1120.82 702.644,1116.34 685.075,1107.4C667.35,1098.38 653.127,1085.03 642.43,1067.3C631.82,1049.72 626.424,1028.07 626.424,1002.3C626.424,976.553 631.662,954.92 641.96,937.353C652.366,919.602 666.455,906.222 684.206,897.194C701.764,888.263 721.283,883.772 742.776,883.772C765.213,883.772 784.986,888.443 802.117,897.691C819.402,907.022 833.02,920.325 842.963,937.61C852.826,954.756 857.824,975.149 857.824,998.82C857.824,1001.79 857.75,1004.99 857.601,1008.4C857.447,1011.95 857.062,1015.58 856.445,1019.29L855.673,1023.91C855.673,1023.91 705.136,1023.91 705.136,1023.91C706.22,1030.43 708.151,1035.81 711.045,1040C714.63,1045.19 719.057,1048.99 724.371,1051.34C729.848,1053.76 735.254,1054.99 740.603,1054.99C747.872,1054.99 754.035,1053.57 759.048,1050.57C763.915,1047.65 767.623,1043.09 770.3,1037.01L771.755,1033.7L854.054,1033.7L852.463,1040.5C849.086,1054.92 842.352,1068.29 832.222,1080.57C822.164,1092.76 809.601,1102.52 794.515,1109.84C779.469,1117.13 762.229,1120.82 742.776,1120.82ZM742.776,1115.28C761.317,1115.28 777.758,1111.81 792.099,1104.86C806.44,1097.9 818.39,1088.63 827.951,1077.04C837.511,1065.45 843.885,1052.85 847.072,1039.24L775.368,1039.24C772.181,1046.48 767.691,1051.84 761.897,1055.31C756.102,1058.79 749.004,1060.53 740.603,1060.53C734.519,1060.53 728.362,1059.15 722.134,1056.4C715.905,1053.65 710.69,1049.23 706.489,1043.15C702.288,1037.06 699.753,1028.81 698.884,1018.38L850.983,1018.38C851.562,1014.9 851.925,1011.5 852.069,1008.16C852.214,1004.83 852.287,1001.72 852.287,998.82C852.287,976.223 847.579,956.739 838.163,940.371C828.748,924.002 815.855,911.399 799.487,902.563C783.118,893.727 764.214,889.309 742.776,889.309C722.206,889.309 703.52,893.582 686.716,902.129C669.913,910.675 656.586,923.35 646.736,940.153C636.886,956.957 631.961,977.671 631.961,1002.3C631.961,1026.92 637.031,1047.64 647.171,1064.44C657.311,1081.24 670.782,1093.92 687.586,1102.46C704.389,1111.01 722.786,1115.28 742.776,1115.28ZM698.884,981.003C700.912,969.414 705.693,960.216 713.225,953.408C720.758,946.599 730.318,943.195 741.907,943.195C753.785,943.195 763.635,946.527 771.457,953.19C779.279,959.854 783.19,969.125 783.19,981.003L698.884,981.003ZM705.874,975.466C705.874,975.466 777.303,975.466 777.303,975.466C776.315,968.006 773.219,961.965 767.867,957.405C761.004,951.559 752.328,948.732 741.907,948.732C731.832,948.732 723.486,951.596 716.938,957.515C711.75,962.204 708.087,968.201 705.874,975.466Z" style="fill:rgb(35,31,32);"/>
            </g>
            <g transform="matrix(0.752544,0,0,0.752544,961.985,1248.8)">
                <path d="M522.642,1057.45L522.642,897.091L498.306,897.091L498.306,841.901L522.642,841.901L522.642,833.644C522.642,804.094 530.102,783.307 545.022,771.284C559.942,759.261 579.57,753.249 603.906,753.249L626.069,753.249L626.069,811.481L613.901,811.481C605.499,811.481 599.416,813.147 595.649,816.479C591.883,819.811 590,825.243 590,832.775L590,841.901L626.069,841.901L626.069,897.091L590,897.091L590,1057.45L522.642,1057.45ZM742.776,1115.28C722.786,1115.28 704.389,1111.01 687.586,1102.46C670.782,1093.92 657.311,1081.24 647.171,1064.44C637.031,1047.64 631.961,1026.92 631.961,1002.3C631.961,977.671 636.886,956.957 646.736,940.153C656.586,923.35 669.913,910.675 686.716,902.129C703.52,893.582 722.206,889.309 742.776,889.309C764.214,889.309 783.118,893.727 799.487,902.563C815.855,911.399 828.748,924.002 838.163,940.371C847.579,956.739 852.287,976.223 852.287,998.82C852.287,1001.72 852.214,1004.83 852.069,1008.16C851.925,1011.5 851.562,1014.9 850.983,1018.38L698.884,1018.38C699.753,1028.81 702.288,1037.06 706.489,1043.15C710.69,1049.23 715.905,1053.65 722.134,1056.4C728.362,1059.15 734.519,1060.53 740.603,1060.53C749.004,1060.53 756.102,1058.79 761.897,1055.31C767.691,1051.84 772.181,1046.48 775.368,1039.24L847.072,1039.24C843.885,1052.85 837.511,1065.45 827.951,1077.04C818.39,1088.63 806.44,1097.9 792.099,1104.86C777.758,1111.81 761.317,1115.28 742.776,1115.28ZM698.884,981.003L783.19,981.003C783.19,969.125 779.279,959.854 771.457,953.19C763.635,946.527 753.785,943.195 741.907,943.195C730.318,943.195 720.758,946.599 713.225,953.408C705.693,960.216 700.912,969.414 698.884,981.003Z" style="fill:white;"/>
                <path d="M517.105,1057.45C517.105,1057.45 517.105,902.628 517.105,902.628L492.769,902.628L492.769,836.364L517.105,836.364L517.105,833.644C517.105,801.972 525.557,779.859 541.548,766.973C557.36,754.231 578.116,747.713 603.906,747.713L631.606,747.713L631.606,817.018L613.901,817.018C607.231,817.018 602.308,817.981 599.318,820.626C596.539,823.084 595.537,827.218 595.537,832.775L595.537,836.364L631.606,836.364L631.606,902.628L595.537,902.628L595.537,1062.98L517.105,1062.98L517.105,1057.45ZM522.642,1057.45L590,1057.45L590,897.091L626.069,897.091L626.069,841.901L590,841.901L590,832.775C590,825.243 591.883,819.811 595.649,816.479C599.416,813.147 605.499,811.481 613.901,811.481L626.069,811.481L626.069,753.249L603.906,753.249C579.57,753.249 559.942,759.261 545.022,771.284C530.102,783.307 522.642,804.094 522.642,833.644L522.642,841.901L498.306,841.901L498.306,897.091L522.642,897.091L522.642,1057.45ZM742.776,1120.82C721.875,1120.82 702.644,1116.34 685.075,1107.4C667.35,1098.38 653.127,1085.03 642.43,1067.3C631.82,1049.72 626.424,1028.07 626.424,1002.3C626.424,976.553 631.662,954.92 641.96,937.353C652.366,919.602 666.455,906.222 684.206,897.194C701.764,888.263 721.283,883.772 742.776,883.772C765.213,883.772 784.986,888.443 802.117,897.691C819.402,907.022 833.02,920.325 842.963,937.61C852.826,954.756 857.824,975.149 857.824,998.82C857.824,1001.79 857.75,1004.99 857.601,1008.4C857.447,1011.95 857.062,1015.58 856.445,1019.29L855.673,1023.91C855.673,1023.91 705.136,1023.91 705.136,1023.91C706.22,1030.43 708.151,1035.81 711.045,1040C714.63,1045.19 719.057,1048.99 724.371,1051.34C729.848,1053.76 735.254,1054.99 740.603,1054.99C747.872,1054.99 754.035,1053.57 759.048,1050.57C763.915,1047.65 767.623,1043.09 770.3,1037.01L771.755,1033.7L854.054,1033.7L852.463,1040.5C849.086,1054.92 842.352,1068.29 832.222,1080.57C822.164,1092.76 809.601,1102.52 794.515,1109.84C779.469,1117.13 762.229,1120.82 742.776,1120.82ZM742.776,1115.28C761.317,1115.28 777.758,1111.81 792.099,1104.86C806.44,1097.9 818.39,1088.63 827.951,1077.04C837.511,1065.45 843.885,1052.85 847.072,1039.24L775.368,1039.24C772.181,1046.48 767.691,1051.84 761.897,1055.31C756.102,1058.79 749.004,1060.53 740.603,1060.53C734.519,1060.53 728.362,1059.15 722.134,1056.4C715.905,1053.65 710.69,1049.23 706.489,1043.15C702.288,1037.06 699.753,1028.81 698.884,1018.38L850.983,1018.38C851.562,1014.9 851.925,1011.5 852.069,1008.16C852.214,1004.83 852.287,1001.72 852.287,998.82C852.287,976.223 847.579,956.739 838.163,940.371C828.748,924.002 815.855,911.399 799.487,902.563C783.118,893.727 764.214,889.309 742.776,889.309C722.206,889.309 703.52,893.582 686.716,902.129C669.913,910.675 656.586,923.35 646.736,940.153C636.886,956.957 631.961,977.671 631.961,1002.3C631.961,1026.92 637.031,1047.64 647.171,1064.44C657.311,1081.24 670.782,1093.92 687.586,1102.46C704.389,1111.01 722.786,1115.28 742.776,1115.28ZM698.884,981.003C700.912,969.414 705.693,960.216 713.225,953.408C720.758,946.599 730.318,943.195 741.907,943.195C753.785,943.195 763.635,946.527 771.457,953.19C779.279,959.854 783.19,969.125 783.19,981.003L698.884,981.003ZM705.874,975.466C705.874,975.466 777.303,975.466 777.303,975.466C776.315,968.006 773.219,961.965 767.867,957.405C761.004,951.559 752.328,948.732 741.907,948.732C731.832,948.732 723.486,951.596 716.938,957.515C711.75,962.204 708.087,968.201 705.874,975.466Z" style="fill:rgb(35,31,32);"/>
            </g>
        </g>
    </g>
</svg>
