<?xml version="1.0" encoding="UTF-8" standalone="no"?>
<!DOCTYPE svg PUBLIC "-//W3C//DTD SVG 1.1//EN" "http://www.w3.org/Graphics/SVG/1.1/DTD/svg11.dtd">
<svg width="100%" height="100%" viewBox="0 0 164 63" version="1.1" xmlns="http://www.w3.org/2000/svg" xmlns:xlink="http://www.w3.org/1999/xlink" xml:space="preserve" xmlns:serif="http://www.serif.com/" style="fill-rule:evenodd;clip-rule:evenodd;stroke-linejoin:round;stroke-miterlimit:2;">
    <g transform="matrix(1,0,0,1,-472,-242)">
        <g id="logo-b" transform="matrix(0.337357,0,0,0.337357,424.95,171.159)">
            <path d="M201.575,297.422L201.575,239.064L222.279,239.064L222.279,248.62L222.506,248.62C226.488,241.453 233.313,238.268 241.39,238.268L245.371,238.268L245.371,258.175C242.527,256.583 239.797,256.242 236.612,256.242C225.123,256.242 222.279,263.863 222.279,273.874L222.279,297.422L222.296,391.875L201.592,391.875L201.575,297.422ZM189.63,230.532L162.67,230.532L162.67,244.866L187.128,244.866L187.128,263.75L162.67,263.75L162.67,297.422L140.373,297.422L140.373,211.649L189.63,211.649L189.63,230.532ZM313.057,269.551L313.057,271.713L269.488,271.713C269.488,280.131 273.925,284.681 282.456,284.681C286.893,284.681 290.078,283.202 292.353,279.334L312.261,279.334C310.668,286.16 306.573,291.165 301.226,294.464C295.88,297.763 289.282,299.356 282.57,299.356C263.231,299.356 248.784,288.435 248.784,268.3C248.784,248.847 262.094,237.13 281.091,237.13C301.34,237.13 313.057,249.644 313.057,269.551ZM269.829,259.768L293.832,259.768C292.808,254.194 287.689,250.554 282.115,250.554C276.086,250.554 271.081,253.739 269.829,259.768ZM382.449,269.551L382.449,271.713L338.88,271.713C338.88,280.131 343.317,284.681 351.848,284.681C356.285,284.681 359.47,283.202 361.745,279.334L381.653,279.334C380.06,286.16 375.965,291.165 370.618,294.464C365.272,297.763 358.674,299.356 351.962,299.356C332.623,299.356 318.176,288.435 318.176,268.3C318.176,248.847 331.486,237.13 350.483,237.13C370.732,237.13 382.449,249.644 382.449,269.551ZM339.221,259.768L363.224,259.768C362.2,254.194 357.081,250.554 351.507,250.554C345.478,250.554 340.473,253.739 339.221,259.768ZM188.282,324.986L161.777,324.986L161.777,339.319L186.917,339.319L186.917,358.203L161.777,358.203L161.777,372.992L188.282,372.992L188.282,391.875L139.48,391.875L139.48,306.102L188.282,306.102L188.282,324.986ZM295.897,364.005L295.897,366.166L252.328,366.166C252.328,374.584 256.764,379.135 265.296,379.135C269.733,379.135 272.918,377.656 275.193,373.788L295.1,373.788C293.508,380.613 289.413,385.619 284.066,388.918C278.719,392.217 272.121,393.809 265.41,393.809C246.071,393.809 231.624,382.889 231.624,362.753C231.624,343.301 244.933,331.584 263.931,331.584C284.18,331.584 295.897,344.097 295.897,364.005ZM252.669,354.222L276.672,354.222C275.648,348.648 270.529,345.007 264.955,345.007C258.926,345.007 253.92,348.193 252.669,354.222ZM347.429,334.997L347.429,352.515C344.357,350.24 340.717,348.42 336.736,348.42C328.773,348.42 322.516,354.563 322.516,362.64C322.516,371.058 328.545,376.973 337.077,376.973C340.717,376.973 344.699,375.494 347.429,372.992L347.429,390.51C342.879,392.785 337.873,393.809 332.868,393.809C315.577,393.809 301.13,380.955 301.13,363.322C301.13,344.552 315.463,331.584 333.778,331.584C338.556,331.584 343.334,332.722 347.429,334.997ZM382.921,350.581L382.921,391.875L362.217,391.875L362.217,350.581L355.506,350.581L355.506,333.518L362.217,333.518L362.217,315.999L382.921,315.999L382.921,333.518L394.638,333.518L394.638,350.581L382.921,350.581ZM421.94,333.518L421.94,391.875L401.236,391.875L401.236,333.518L421.94,333.518ZM411.588,299.504C417.958,299.504 423.191,304.737 423.191,311.108C423.191,317.478 417.958,322.711 411.588,322.711C405.218,322.711 399.985,317.478 399.985,311.108C399.985,304.737 405.218,299.504 411.588,299.504ZM450.266,333.518L464.258,363.436L478.136,333.518L501.343,333.518L470.856,391.875L457.66,391.875L427.059,333.518L450.266,333.518ZM566.412,364.005L566.412,366.166L522.843,366.166C522.843,374.584 527.279,379.135 535.811,379.135C540.248,379.135 543.433,377.656 545.708,373.788L565.616,373.788C564.023,380.613 559.928,385.619 554.581,388.918C549.235,392.217 542.637,393.809 535.925,393.809C516.586,393.809 502.139,382.889 502.139,362.753C502.139,343.301 515.449,331.584 534.446,331.584C554.695,331.584 566.412,344.097 566.412,364.005ZM523.184,354.222L547.187,354.222C546.163,348.648 541.044,345.007 535.47,345.007C529.441,345.007 524.435,348.193 523.184,354.222ZM621.357,335.338L614.418,348.534C611.232,346.827 606.796,345.69 603.269,345.69C600.88,345.69 596.785,346.714 596.785,349.671C596.785,353.653 603.269,354.222 606.113,354.79C615.783,356.724 623.063,361.275 623.063,372.082C623.063,387.439 609.071,393.809 595.534,393.809C587.229,393.809 579.039,391.42 571.986,387.098L579.494,372.65C583.703,375.608 590.756,378.566 595.875,378.566C598.491,378.566 602.359,377.314 602.359,374.129C602.359,369.579 595.875,369.351 589.391,367.645C582.907,365.939 576.423,362.753 576.423,352.288C576.423,337.954 589.391,331.584 602.132,331.584C608.73,331.584 615.328,332.608 621.357,335.338Z"/>
        </g>
    </g>
</svg>
